<svg width="36" height="30" viewBox="0 0 36 30" fill="none" xmlns="http://www.w3.org/2000/svg">
    <path fill-rule="evenodd" clip-rule="evenodd" d="M24.39 27.03V9.52h5.526v10.283c-1.842 2.408-3.683 4.82-5.525 7.228zm-11.5-.004V9.519h5.437v10.374c-1.814 2.376-3.626 4.755-5.438 7.133zm-11.556-.172V9.41H6.787v10.476l-5.453 6.968zm4.94-25.1h4.52C9.574 3.752 8.354 5.75 7.13 7.746H2.12l4.153-5.992zm1.846 9.433V8.861c1.22-1.766 2.324-3.69 3.436-5.586v24.999H8.12V11.187zm9.678-9.409h4.586L18.67 7.855h-5.082c1.402-2.026 2.806-4.051 4.209-6.077zm1.862 9.503v-2.31c1.205-1.745 2.298-3.642 3.397-5.518V28.274H19.66V11.28zm9.727-9.503h4.585c-1.237 2.026-2.475 4.051-3.714 6.077h-5.08c1.404-2.026 2.807-4.051 4.209-6.077zm5.26 20.626-3.398 4.58V8.972c1.205-1.745 2.3-3.642 3.397-5.518v18.951zm1.333-.762V1.134a.902.902 0 0 0-.047-.495.687.687 0 0 0-.283-.392.553.553 0 0 0-.337-.13h-4.069c-.824 0-2.164-.355-2.78.46-1.418 1.872-2.74 3.876-4.073 5.854V1.134a.885.885 0 0 0-.045-.495.705.705 0 0 0-.285-.392.553.553 0 0 0-.337-.13h-4.07c-.825 0-2.163-.355-2.781.46-1.385 1.83-2.68 3.789-3.984 5.723V.946c0-.433-.22-.688-.48-.77a.542.542 0 0 0-.274-.086h-3.86c-.83 0-2.277-.385-2.907.436C3.552 2.891 1.91 5.514.196 7.99l-.006.011c-.014.017-.024.04-.036.061A.952.952 0 0 0 0 8.578V28.897c0 .714.731 1.106 1.138.588l5.649-7.22v6.841c0 .45.305.832.667.832h4.713c.178.033.364-.03.527-.244 1.878-2.463 3.755-4.927 5.633-7.388V29.106c0 .45.305.832.667.832h4.678c.174.03.361-.033.523-.244 1.907-2.494 3.814-4.988 5.72-7.484V29.106c0 .7.74 1.126 1.139.588 1.227-1.653 2.452-3.304 3.678-4.96.407-.548 1.143-1.232 1.248-2.005.045-.342 0-.74 0-1.087z" fill="#fff"/>
</svg>
