<svg width="126" height="50" viewBox="0 0 126 50" fill="none" xmlns="http://www.w3.org/2000/svg">
    <path d="M7.022 34.166v14.823H3.023V37.287H0v-3.219h7.022v.098zM21.163 41.578c0 4.876-2.146 7.509-6.046 7.509-3.999 0-6.144-2.73-6.144-7.51 0-4.875 2.145-7.509 6.143-7.509 3.804 0 6.047 2.731 6.047 7.51zm-8.29 0c0 3.413.683 4.778 2.244 4.778 1.56 0 2.243-1.463 2.243-4.778 0-3.414-.683-4.779-2.243-4.779-1.658 0-2.244 1.365-2.244 4.779zM33.938 41.578c0 4.876-2.145 7.509-6.046 7.509-3.998 0-6.144-2.73-6.144-7.51 0-4.875 2.145-7.509 6.144-7.509 3.9 0 6.046 2.731 6.046 7.51zm-8.29 0c0 3.413.684 4.778 2.244 4.778s2.243-1.463 2.243-4.778c0-3.414-.683-4.779-2.243-4.779-1.56 0-2.243 1.365-2.243 4.779z" fill="#FF5A60"/>
    <path d="M41.25 34.166v11.508h5.852v3.315h-9.46V34.166h3.609zM59.879 41.578v7.412h-3.901v-1.268c-.78.975-2.048 1.463-3.609 1.463-2.535 0-4.096-1.463-4.096-3.608 0-2.146 1.658-3.414 4.584-3.511h3.12v-.098c0-1.073-.78-1.755-2.242-1.755-.975 0-2.34.292-3.609.877l-1.072-2.535c1.852-.78 3.608-1.268 5.558-1.268 3.316.195 5.267 1.658 5.267 4.291zm-3.901 3.608v-.975h-2.34c-1.074 0-1.659.39-1.659 1.17 0 .78.585 1.268 1.658 1.268 1.17 0 2.146-.585 2.34-1.463zM73.824 33.387v15.7h-3.999v-1.462c-.78 1.073-2.048 1.658-3.51 1.658-3.414 0-5.56-2.34-5.56-5.949 0-3.51 2.244-5.754 5.56-5.754 1.56 0 2.828.585 3.608 1.658v-5.754h3.9v-.097zm-3.999 9.947c0-1.755-1.072-2.828-2.535-2.828-1.56 0-2.633 1.17-2.633 2.828s1.073 2.828 2.633 2.828c1.56.098 2.535-1.073 2.535-2.828zM83.868 37.481v3.414c-2.243-.195-3.706.682-3.9 2.34v5.852h-3.902V37.579h3.999v1.95c.78-1.365 2.145-2.048 3.803-2.048zM88.842 34.362c0 1.17-.878 2.048-2.048 2.048-1.268 0-2.048-.78-2.048-2.048 0-1.17.878-2.047 2.048-2.047s2.048.877 2.048 2.047zm-.195 3.219v11.41h-3.9V37.58h3.9zM94.889 33.387v15.7h-3.998v-15.7h3.998zM101.129 33.387v15.7h-3.998v-15.7h3.998zM115.564 43.333c0 3.51-2.633 5.851-6.534 5.851-3.998 0-6.534-2.34-6.534-5.851s2.633-5.852 6.534-5.852 6.534 2.341 6.534 5.852zm-9.167 0c0 1.658 1.073 2.828 2.536 2.828 1.56 0 2.633-1.17 2.633-2.828 0-1.756-1.073-2.828-2.633-2.828-1.463 0-2.536 1.17-2.536 2.828zM120.928 40.018c-.683 0-1.17.195-1.17.682 0 1.463 6.339.78 6.241 4.78 0 2.34-2.145 3.705-5.071 3.705-2.048 0-3.998-.585-5.461-1.658l1.268-2.438c1.365.878 2.925 1.463 4.291 1.463.78 0 1.267-.195 1.267-.683 0-1.56-6.241-.78-6.241-4.778 0-2.438 2.145-3.706 4.974-3.706a9.77 9.77 0 0 1 4.973 1.365l-1.365 2.438c-1.365-.683-2.731-1.17-3.706-1.17z" fill="#3E3E3E"/>
    <path d="M84.357 21.099V1.985c0-.195 0-.293-.097-.488a.762.762 0 0 0-.39-.39c-.098-.098-.293-.098-.39-.098h-4.974c-.975 0-2.633-.292-3.413.39-1.756 1.756-3.316 3.609-4.974 5.462V1.887c0-.195 0-.292-.098-.488a.761.761 0 0 0-.39-.39c-.097-.097-.292-.097-.39-.097h-4.973c-.976 0-2.633-.293-3.414.39-1.657 1.755-3.315 3.51-4.876 5.364V1.595c0-.39-.292-.683-.585-.683-.097-.098-.195-.098-.292-.098h-4.779c-.975 0-2.828-.39-3.608.39-2.243 2.243-4.194 4.681-6.34 7.022v.098a.745.745 0 0 0-.194.487V27.73c0 .683.877 1.073 1.365.585 2.34-2.242 4.584-4.486 6.924-6.729v6.437c0 .39.39.78.78.78h5.754c.195 0 .488 0 .683-.195l6.924-6.924v6.339c0 .39.39.78.78.78h5.754c.195 0 .487 0 .682-.195l7.022-7.021v6.436c0 .683.878 1.073 1.365.585 1.463-1.56 3.024-3.12 4.486-4.681.488-.488 1.366-1.17 1.56-1.853.098-.292.098-.683.098-.975zm-1.658.683c-1.365 1.462-2.73 2.828-4.193 4.29V9.202c1.463-1.658 2.828-3.413 4.193-5.168V21.78zm-6.436-19.31h5.656c-1.56 1.853-3.023 3.804-4.583 5.656h-6.242c1.658-1.852 3.413-3.803 5.169-5.656zm-11.995 8.875V9.2c1.463-1.658 2.828-3.413 4.193-5.168v23.21h-4.193V11.347zm-2.243-8.875h5.656c-1.56 1.853-3.023 3.804-4.584 5.656h-6.241c1.755-1.852 3.413-3.803 5.169-5.656zM50.127 11.25V9.104c1.56-1.658 2.926-3.414 4.29-5.266v23.405h-4.193c-.097-5.364-.097-10.63-.097-15.994zm-2.243-8.777h5.559c-1.463 1.853-3.023 3.706-4.486 5.559h-6.144c1.658-1.853 3.413-3.706 5.07-5.559zm-6.046 23.405V9.592h6.728v9.751c-2.242 2.244-4.485 4.389-6.728 6.535zm14.14.196V9.689h6.631v9.654c-2.145 2.341-4.388 4.486-6.63 6.73zm14.141 0V9.689h6.729v9.654l-6.729 6.73z" fill="#FF5A60"/>
</svg>
